<svg width="665" height="337" viewBox="0 0 665 337" fill="none" xmlns="http://www.w3.org/2000/svg">
<path d="M262.974 328.242L524.218 320.626C533.119 316.151 535.943 308.77 536.243 305.639L534.462 277.539C534.779 271.999 534.462 266.458 543.565 268.634L595.41 280.903C612.824 286.246 618.695 275.297 622.125 271.603L653.412 219.361C650.724 223.257 646.961 228.505 653.412 218.333C661.504 205.114 653.412 200.243 649.38 197.555L557.586 149.244C546.669 144.336 531.536 142.606 525.333 142.354L450.386 149.244C445.454 149.118 440.433 150.439 436.33 155.379C431.891 162.206 423.988 175.958 414.932 182.049C409.722 184.778 370.116 188.093 350.964 189.41C296.143 188.243 261.618 144.919 251.208 123.403C248.236 121.818 232.629 76.3708 216.775 55.0311C202.109 39.7713 173.01 22.5783 160.294 15.8893C123.63 -1.74864 101.831 15.8906 81.7651 33.23C69.2798 42.9408 56.0113 43.6961 50.9377 42.8599C43.3502 42.8599 40.9265 48.3394 40.663 51.0792C40.663 54.9994 37.6597 69.0998 34.8144 76.3708C32.6013 80.0064 19.0071 109.724 14.4231 127.586L8.8418 172.952C8.8418 177.706 9.48667 179.317 12.9509 183.749L57.5879 224.921C61.0042 227.177 60.5154 230.695 59.8439 232.172L41.8767 259.566C36.5267 267.624 40.8222 272.746 43.6387 274.299C106.143 299.146 199.316 294.876 219.747 292.595C241.745 294.18 249.722 305.972 250.961 311.67C250.961 316.228 254.676 328.242 262.974 328.242Z" stroke="black" stroke-width="16" stroke-linejoin="round"/>
<path d="M262.974 328.242L524.218 320.626C533.119 316.151 535.943 308.77 536.243 305.639L534.462 277.539C534.779 271.999 534.462 266.458 543.565 268.634L595.41 280.903C612.824 286.246 618.695 275.297 622.125 271.603L653.412 219.361C650.724 223.257 646.961 228.505 653.412 218.333C661.504 205.114 653.412 200.243 649.38 197.555L557.586 149.244C546.669 144.336 531.536 142.606 525.333 142.354L450.386 149.244C445.454 149.118 440.433 150.439 436.33 155.379C431.891 162.206 423.988 175.958 414.932 182.049C409.722 184.778 370.116 188.093 350.964 189.41C296.143 188.243 261.618 144.919 251.208 123.403C248.236 121.818 232.629 76.3708 216.775 55.0311C202.109 39.7713 173.01 22.5783 160.294 15.8893C123.63 -1.74864 101.831 15.8906 81.7651 33.23C69.2798 42.9408 56.0113 43.6961 50.9377 42.8599C43.3502 42.8599 40.9265 48.3394 40.663 51.0792C40.663 54.9994 37.6597 69.0998 34.8144 76.3708C32.6013 80.0064 19.0071 109.724 14.4231 127.586L8.8418 172.952C8.8418 177.706 9.48667 179.317 12.9509 183.749L57.5879 224.921C61.0042 227.177 60.5154 230.695 59.8439 232.172L41.8767 259.566C36.5267 267.624 40.8222 272.746 43.6387 274.299C106.143 299.146 199.316 294.876 219.747 292.595C241.745 294.18 249.722 305.972 250.961 311.67C250.961 316.228 254.676 328.242 262.974 328.242Z" stroke="white" stroke-width="8" stroke-linejoin="round"/>
</svg>
