<svg width="485" height="320" viewBox="0 0 485 320" fill="none" xmlns="http://www.w3.org/2000/svg">
<path d="M435.59 311.511H21.7846C5.63418 311.511 7.38512 305.245 10.2794 302.113L30.2953 279.555C32.4693 277.381 30.9372 272.982 30.2953 270.238L18.2603 227.724L49.9093 17.9925C54.4617 5.09385 66.3488 7.56031 70.6167 11.9857L122.148 67.3109C130.621 75.6571 146.439 81.6428 153.288 83.5923C162.393 87.639 165.618 95.0789 166.092 98.293V135.282C166.345 140.846 173.047 147.612 176.367 150.299L231.504 190.995C247.464 203.925 234.964 210.357 226.705 209.556L109.201 196.583C104.619 196.583 96.5219 196.583 91.8235 201.346L74.8987 221.877C71.7083 225.018 73.5694 227.084 74.8987 227.724C82.8141 229.94 98.6449 232.671 120.808 234.056L346.808 235.553C363.059 224.256 359.195 203.844 352.754 189.724C345.818 169.906 311.879 160.74 291.318 152.565C263.375 139.485 265.638 105.332 270.262 89.8908L291.566 44.5566C307.222 26.9183 321.541 37.2073 326.743 44.5566L466.22 273.32C476.144 284.732 479.555 293.167 473.973 299.059L462.189 305.572C454.436 309.603 446.993 311.511 435.59 311.511Z" stroke="black" stroke-width="16" stroke-linejoin="round"/>
<path d="M435.59 311.511H21.7846C5.63418 311.511 7.38512 305.245 10.2794 302.113L30.2953 279.555C32.4693 277.381 30.9372 272.982 30.2953 270.238L18.2603 227.724L49.9093 17.9925C54.4617 5.09385 66.3488 7.56031 70.6167 11.9857L122.148 67.3109C130.621 75.6571 146.439 81.6428 153.288 83.5923C162.393 87.639 165.618 95.0789 166.092 98.293V135.282C166.345 140.846 173.047 147.612 176.367 150.299L231.504 190.995C247.464 203.925 234.964 210.357 226.705 209.556L109.201 196.583C104.619 196.583 96.5219 196.583 91.8235 201.346L74.8987 221.877C71.7083 225.018 73.5694 227.084 74.8987 227.724C82.8141 229.94 98.6449 232.671 120.808 234.056L346.808 235.553C363.059 224.256 359.195 203.844 352.754 189.724C345.818 169.906 311.879 160.74 291.318 152.565C263.375 139.485 265.638 105.332 270.262 89.8908L291.566 44.5566C307.222 26.9183 321.541 37.2073 326.743 44.5566L466.22 273.32C476.144 284.732 479.555 293.167 473.973 299.059L462.189 305.572C454.436 309.603 446.993 311.511 435.59 311.511Z" stroke="white" stroke-width="8" stroke-linejoin="round"/>
</svg>
