<svg width="695" height="220" viewBox="0 0 695 220" fill="none" xmlns="http://www.w3.org/2000/svg">
<path d="M642.568 210.045L121.714 211.867C101.767 211.421 97.1139 198.028 97.2807 191.387C96.0384 179.585 110.092 152.925 54.1867 138.589C7.60079 129.66 -32.7745 30.2745 90.8633 8.53236H190.916C223.586 8.53236 237.816 5.03997 243.251 39.5902C243.873 57.2932 230.828 71.8127 197.918 82.0766H105.705C85.4414 82.2349 79.9865 101.67 90.8633 111.957C98.1852 118.883 142.314 154.502 190.916 167.941C197.112 169.332 237.409 169.467 256.783 169.361C266.211 169.113 272.162 158.601 271.979 152.925C271.731 145.234 271.678 133.965 274.46 120.983C275.948 114.036 300.802 78.2268 329.71 37.3569C343.483 17.8851 359.393 17.5662 383.93 22.9113L571.482 134.178C591.786 146.704 615.802 166.503 624.033 143.758C624.033 116.886 630.356 96.0205 570.921 76.9509C549.898 70.5709 547.685 14.8162 589.416 23.206L658.143 45.5573C681.924 53.2862 685.207 66.2016 686.992 76.0276V154.174C686.992 178.901 685.704 202.251 642.568 210.045Z" stroke="black" stroke-width="16" stroke-linejoin="round"/>
<path d="M642.568 210.045L121.714 211.867C101.767 211.421 97.1139 198.028 97.2807 191.387C96.0384 179.585 110.092 152.925 54.1867 138.589C7.60079 129.66 -32.7745 30.2745 90.8633 8.53236H190.916C223.586 8.53236 237.816 5.03997 243.251 39.5902C243.873 57.2932 230.828 71.8127 197.918 82.0766H105.705C85.4414 82.2349 79.9865 101.67 90.8633 111.957C98.1852 118.883 142.314 154.502 190.916 167.941C197.112 169.332 237.409 169.467 256.783 169.361C266.211 169.113 272.162 158.601 271.979 152.925C271.731 145.234 271.678 133.965 274.46 120.983C275.948 114.036 300.802 78.2268 329.71 37.3569C343.483 17.8851 359.393 17.5662 383.93 22.9113L571.482 134.178C591.786 146.704 615.802 166.503 624.033 143.758C624.033 116.886 630.356 96.0205 570.921 76.9509C549.898 70.5709 547.685 14.8162 589.416 23.206L658.143 45.5573C681.924 53.2862 685.207 66.2016 686.992 76.0276V154.174C686.992 178.901 685.704 202.251 642.568 210.045Z" stroke="white" stroke-width="8" stroke-linejoin="round"/>
</svg>
