<svg width="691" height="254" viewBox="0 0 691 254" fill="none" xmlns="http://www.w3.org/2000/svg">
<path d="M190.295 25.8961L415.405 75.1774C422.607 76.754 423.367 80.7359 422.847 82.5297C422.341 86.4499 425.587 89.2215 427.273 90.1172L565.921 121.307C588.902 125.474 609.289 134.801 635.874 151.486C650.522 160.678 649.259 162.093 657.74 153.479C679.076 137.601 687.494 153.479 679.138 166.194C664.873 187.902 630.76 211.161 596.993 225.183C584.17 232.465 576.742 226.898 574.632 223.204C570.516 218.613 564.342 218.257 561.769 218.653L522.786 228.943C515.187 230.684 509.478 234.806 507.573 236.65C492.904 243.479 481.966 245.344 463.155 236.65L430.735 221.395C413.616 213.952 408.081 212.743 404.995 230.698C402.266 246.576 379.462 246.204 368.401 244.033C271.955 213.952 237.222 188.212 195.065 148.604C187.73 143.546 189.077 141.027 193.484 133.271C196.646 127.707 192.768 121.161 188.329 115.156C181.591 106.039 117.232 54.2154 76.8789 37.0859C68.3936 32.9443 26.9959 23.7698 20.745 23.4383C8.008 23.4489 -1.09377 3.70921 23.8658 9.88364C28.0834 11.1241 42.7826 20.1182 63.2508 18.5665C91.7813 18.5665 155.045 21.358 190.295 25.8961Z" stroke="black" stroke-width="16" stroke-linejoin="round"/>
<path d="M190.295 25.8961L415.405 75.1774C422.607 76.754 423.367 80.7359 422.847 82.5297C422.341 86.4499 425.587 89.2215 427.273 90.1172L565.921 121.307C588.902 125.474 609.289 134.801 635.874 151.486C650.522 160.678 649.259 162.093 657.74 153.479C679.076 137.601 687.494 153.479 679.138 166.194C664.873 187.902 630.76 211.161 596.993 225.183C584.17 232.465 576.742 226.898 574.632 223.204C570.516 218.613 564.342 218.257 561.769 218.653L522.786 228.943C515.187 230.684 509.478 234.806 507.573 236.65C492.904 243.479 481.966 245.344 463.155 236.65L430.735 221.395C413.616 213.952 408.081 212.743 404.995 230.698C402.266 246.576 379.462 246.204 368.401 244.033C271.955 213.952 237.222 188.212 195.065 148.604C187.73 143.546 189.077 141.027 193.484 133.271C196.646 127.707 192.768 121.161 188.329 115.156C181.591 106.039 117.232 54.2154 76.8789 37.0859C68.3936 32.9443 26.9959 23.7698 20.745 23.4383C8.008 23.4489 -1.09377 3.70921 23.8658 9.88364C28.0834 11.1241 42.7826 20.1182 63.2508 18.5665C91.7813 18.5665 155.045 21.358 190.295 25.8961Z" stroke="white" stroke-width="8" stroke-linejoin="round"/>
</svg>
