<svg width="531" height="347" viewBox="0 0 531 347" fill="none" xmlns="http://www.w3.org/2000/svg">
<path d="M478.262 335.058L13.213 338.715C6.35464 338.094 8.49676 333.226 10.4251 330.869C16.6131 324.593 30.5684 318.703 36.5305 317.172L141.067 312.672C148.184 313.033 147.604 309.686 148.983 306.538L250.979 27.6381C258.883 11.194 294.291 -5.24685 313.576 25.583C319.266 40.9161 302.036 71.5821 284.174 44.2417C267.893 29.2189 261.222 46.2968 261.412 48.8254C263.309 74.1169 282.91 79.4918 296.03 78.0687L391.21 64.3386C394.755 63.9444 403.295 63.0587 408.409 64.3386L484.99 82.7419C513.011 91.9237 475.037 109.057 451.433 108.436C427.829 107.814 392.533 104.885 377.835 103.498C348.56 102.754 294.104 133.573 349.44 203.458C353.199 214.144 365.468 264.011 292.394 248.958C279.875 248.326 275.995 253.349 276.745 257.968C278.389 268.085 283.963 281.785 286.545 287.37C290.212 293.44 290.181 294.408 296.144 294.408L468.63 298.946C478.732 299.047 473.933 286.529 470.272 280.258C466.357 268.389 470.272 261.57 492.039 260.971C512.399 261.983 525.073 280.511 521.599 300.23C519.541 306.562 514.475 330.902 478.262 335.058Z" stroke="black" stroke-width="16" stroke-linejoin="round"/>
<path d="M478.262 335.058L13.213 338.715C6.35464 338.094 8.49676 333.226 10.4251 330.869C16.6131 324.593 30.5684 318.703 36.5305 317.172L141.067 312.672C148.184 313.033 147.604 309.686 148.983 306.538L250.979 27.6381C258.883 11.194 294.291 -5.24685 313.576 25.583C319.266 40.9161 302.036 71.5821 284.174 44.2417C267.893 29.2189 261.222 46.2968 261.412 48.8254C263.309 74.1169 282.91 79.4918 296.03 78.0687L391.21 64.3386C394.755 63.9444 403.295 63.0587 408.409 64.3386L484.99 82.7419C513.011 91.9237 475.037 109.057 451.433 108.436C427.829 107.814 392.533 104.885 377.835 103.498C348.56 102.754 294.104 133.573 349.44 203.458C353.199 214.144 365.468 264.011 292.394 248.958C279.875 248.326 275.995 253.349 276.745 257.968C278.389 268.085 283.963 281.785 286.545 287.37C290.212 293.44 290.181 294.408 296.144 294.408L468.63 298.946C478.732 299.047 473.933 286.529 470.272 280.258C466.357 268.389 470.272 261.57 492.039 260.971C512.399 261.983 525.073 280.511 521.599 300.23C519.541 306.562 514.475 330.902 478.262 335.058Z" stroke="white" stroke-width="8" stroke-linejoin="round"/>
</svg>
