<svg width="694" height="394" viewBox="0 0 694 394" fill="none" xmlns="http://www.w3.org/2000/svg">
<path d="M421.384 58.1872L514.032 55.7106L536.813 54.6503C546.914 53.802 556.414 50.2195 559.901 48.5343L647.789 10.7555C660.561 6.20365 665.967 8.8589 667.074 10.7555L683.197 39.5239C688.508 48.6288 684.251 53.7504 681.458 55.173L643.205 74.7739C629.168 80.4645 617.38 90.2575 613.241 94.4427C581.019 123.171 575.195 160.052 468.685 201.295C465.462 202.906 456.921 210.077 453.601 201.754C451.682 194.481 451.281 194.178 445.646 194.178L288.426 200.583C280.888 199.772 285.072 200.583 274.365 195.889C269.039 194.033 264.883 189.434 259.538 196.898L246.14 219.053C241.696 225.114 241.005 232.269 241.216 235.089C240.913 237.716 252.327 275.369 257.757 296.33C260.114 305.429 258.599 318.638 257.757 324.109C256.646 332.291 249.286 351.389 245.746 359.915C239.404 374.779 232.616 372.797 218.744 372.797C191.395 369.23 162.156 361.802 136.649 365.817C119.552 368.508 58.8138 378.943 30.5821 383.824C5.64923 390.552 5.25283 370.764 11.5853 362.453L77.7806 303.346C83.7241 298.414 78.2809 283.903 74.8164 277.264C72.824 269.424 73.9862 263.369 74.8164 261.321L122.018 128.896C124.442 118.088 130.015 112.103 132.499 110.461C145.631 103.895 158.715 97.4338 163.615 95.0239C168.86 92.6031 173.918 85.4086 174.912 82.5166C177.575 74.7701 172.039 67.6401 186.875 62.622C207.963 55.4895 287.353 35.6427 340.383 43.3954C373.875 49.2869 392.172 54.869 421.384 58.1872Z" stroke="black" stroke-width="16" stroke-linejoin="round"/>
<path d="M421.384 58.1872L514.032 55.7106L536.813 54.6503C546.914 53.802 556.414 50.2195 559.901 48.5343L647.789 10.7555C660.561 6.20365 665.967 8.8589 667.074 10.7555L683.197 39.5239C688.508 48.6288 684.251 53.7504 681.458 55.173L643.205 74.7739C629.168 80.4645 617.38 90.2575 613.241 94.4427C581.019 123.171 575.195 160.052 468.685 201.295C465.462 202.906 456.921 210.077 453.601 201.754C451.682 194.481 451.281 194.178 445.646 194.178L288.426 200.583C280.888 199.772 285.072 200.583 274.365 195.889C269.039 194.033 264.883 189.434 259.538 196.898L246.14 219.053C241.696 225.114 241.005 232.269 241.216 235.089C240.913 237.716 252.327 275.369 257.757 296.33C260.114 305.429 258.599 318.638 257.757 324.109C256.646 332.291 249.286 351.389 245.746 359.915C239.404 374.779 232.616 372.797 218.744 372.797C191.395 369.23 162.156 361.802 136.649 365.817C119.552 368.508 58.8138 378.943 30.5821 383.824C5.64923 390.552 5.25283 370.764 11.5853 362.453L77.7806 303.346C83.7241 298.414 78.2809 283.903 74.8164 277.264C72.824 269.424 73.9862 263.369 74.8164 261.321L122.018 128.896C124.442 118.088 130.015 112.103 132.499 110.461C145.631 103.895 158.715 97.4338 163.615 95.0239C168.86 92.6031 173.918 85.4086 174.912 82.5166C177.575 74.7701 172.039 67.6401 186.875 62.622C207.963 55.4895 287.353 35.6427 340.383 43.3954C373.875 49.2869 392.172 54.869 421.384 58.1872Z" stroke="white" stroke-width="8" stroke-linejoin="round"/>
</svg>
