<svg width="620" height="346" viewBox="0 0 620 346" fill="none" xmlns="http://www.w3.org/2000/svg">
<path d="M607.463 285.773L468.553 117.572C451.806 102.689 429.168 77.8812 398.156 98.0349C389.729 103.512 385.752 109.824 374.897 98.0349C371.875 94.7524 368.925 98.0486 363.571 102.796C337.493 122.449 311.966 154.902 270.015 165.588C154.864 132.267 30.2447 81.0211 11.6101 42.5874C-5.04224 2.13407 56.5012 3.71757 60.1379 18.5172C84.3221 101.76 184.8 165.588 242.482 51.2106C247.773 45.375 257.314 50.3393 252.407 62.6873C246.297 71.8372 237.382 91.122 240.923 104.4L255.375 182.21C255.889 187.018 258.209 189.903 264.664 189.741C276.715 189.17 301.651 187.901 304.985 187.396C306.205 186.933 309.228 185.376 311.551 182.85L325.602 165.588C386.294 86.7318 458.878 137.515 437.573 178.142C433.119 186.381 427.931 205.463 442.817 215.882C456.172 225.231 469.495 215.882 483.563 224.061C496.43 231.54 495.893 254.094 503.638 267.056C515.395 279.371 516.978 272.643 537.954 276.996C554.774 290.255 561.7 315.386 579.114 332.602C585.186 338.604 594.905 340.359 601.079 332.602C607.38 324.337 617.477 303.401 607.463 285.773Z" stroke="black" stroke-width="16" stroke-linejoin="round"/>
<path d="M607.463 285.773L468.553 117.572C451.806 102.689 429.168 77.8812 398.156 98.0349C389.729 103.512 385.752 109.824 374.897 98.0349C371.875 94.7524 368.925 98.0486 363.571 102.796C337.493 122.449 311.966 154.902 270.015 165.588C154.864 132.267 30.2447 81.0211 11.6101 42.5874C-5.04224 2.13407 56.5012 3.71757 60.1379 18.5172C84.3221 101.76 184.8 165.588 242.482 51.2106C247.773 45.375 257.314 50.3393 252.407 62.6873C246.297 71.8372 237.382 91.122 240.923 104.4L255.375 182.21C255.889 187.018 258.209 189.903 264.664 189.741C276.715 189.17 301.651 187.901 304.985 187.396C306.205 186.933 309.228 185.376 311.551 182.85L325.602 165.588C386.294 86.7318 458.878 137.515 437.573 178.142C433.119 186.381 427.931 205.463 442.817 215.882C456.172 225.231 469.495 215.882 483.563 224.061C496.43 231.54 495.893 254.094 503.638 267.056C515.395 279.371 516.978 272.643 537.954 276.996C554.774 290.255 561.7 315.386 579.114 332.602C585.186 338.604 594.905 340.359 601.079 332.602C607.38 324.337 617.477 303.401 607.463 285.773Z" stroke="white" stroke-width="8" stroke-linejoin="round"/>
</svg>
