<svg width="660" height="387" viewBox="0 0 660 387" fill="none" xmlns="http://www.w3.org/2000/svg">
<path d="M421.403 171.694C461.39 136.754 537.093 66.8736 632.036 11.1079C642.094 5.08224 648.75 10.0578 650.82 13.2988C656.411 34.1076 621.704 138.307 534.832 164.969C513.777 166.236 483.004 162.178 470.249 159.99C453.8 162.17 449.192 169.899 437.302 179.737C434.577 199.492 424.668 205.819 410.795 205.819C386.023 209.783 359.516 221.921 346.882 236.537C339.946 241.491 324.587 264.53 310.035 275.191C295.392 283.106 274.416 285.583 257.794 300.124C243.942 315.757 230.728 329.186 218.282 334.328C194.508 349.123 174.654 346.183 167.699 331.588C162.641 325.476 152.927 327.44 148.703 329.186C140.776 333.149 129.92 333.379 118.285 331.588C101.03 331.113 73.9591 331.588 53.5768 362.381C41.3859 378.731 34.2526 377.74 28.5541 378.731C2.98893 379.722 6.26111 356.683 14.929 351.233C19.8835 346.081 94.201 314.57 127.862 304.61C146.452 306.683 159.816 303.747 164.175 302.02C168.768 301.133 174.005 299.522 179.726 303.792C181.208 306.177 188.186 314.186 195.518 317.409C197.516 317.86 203.011 317.597 205.509 317.409C211.181 316.958 224.685 310.56 230.728 307.418C234.079 306.193 235.992 303.148 236.529 301.778C237.303 298.555 238.071 288.987 241.041 285.583L241.095 285.521C243.761 282.464 249.501 275.884 261.374 271.408C267.562 269.64 278.103 272.636 283.247 273.944C304.871 275.588 313.8 257.371 314.396 244.859C314.648 239.548 312.807 237.271 320.086 235.216L381.575 199.492C386.128 197.975 389.9 197.595 391.217 197.595L413.176 196.536C426.512 192.468 420.161 183.642 415.319 179.737C414.495 175.567 415.3 176.198 421.403 171.694Z" stroke="black" stroke-width="16" stroke-linejoin="round"/>
<path d="M421.403 171.694C461.39 136.754 537.093 66.8736 632.036 11.1079C642.094 5.08224 648.75 10.0578 650.82 13.2988C656.411 34.1076 621.704 138.307 534.832 164.969C513.777 166.236 483.004 162.178 470.249 159.99C453.8 162.17 449.192 169.899 437.302 179.737C434.577 199.492 424.668 205.819 410.795 205.819C386.023 209.783 359.516 221.921 346.882 236.537C339.946 241.491 324.587 264.53 310.035 275.191C295.392 283.106 274.416 285.583 257.794 300.124C243.942 315.757 230.728 329.186 218.282 334.328C194.508 349.123 174.654 346.183 167.699 331.588C162.641 325.476 152.927 327.44 148.703 329.186C140.776 333.149 129.92 333.379 118.285 331.588C101.03 331.113 73.9591 331.588 53.5768 362.381C41.3859 378.731 34.2526 377.74 28.5541 378.731C2.98893 379.722 6.26111 356.683 14.929 351.233C19.8835 346.081 94.201 314.57 127.862 304.61C146.452 306.683 159.816 303.747 164.175 302.02C168.768 301.133 174.005 299.522 179.726 303.792C181.208 306.177 188.186 314.186 195.518 317.409C197.516 317.86 203.011 317.597 205.509 317.409C211.181 316.958 224.685 310.56 230.728 307.418C234.079 306.193 235.992 303.148 236.529 301.778C237.303 298.555 238.071 288.987 241.041 285.583L241.095 285.521C243.761 282.464 249.501 275.884 261.374 271.408C267.562 269.64 278.103 272.636 283.247 273.944C304.871 275.588 313.8 257.371 314.396 244.859C314.648 239.548 312.807 237.271 320.086 235.216L381.575 199.492C386.128 197.975 389.9 197.595 391.217 197.595L413.176 196.536C426.512 192.468 420.161 183.642 415.319 179.737C414.495 175.567 415.3 176.198 421.403 171.694Z" stroke="white" stroke-width="8" stroke-linejoin="round"/>
</svg>
