<svg width="699" height="273" viewBox="0 0 699 273" fill="none" xmlns="http://www.w3.org/2000/svg">
<path d="M100.718 8.75488L679.815 33.3447C688.97 33.7334 689.856 39.4297 689.156 42.2292L683.734 64.6072C681.814 72.9915 682.092 76.224 687.395 78.2443C692.699 80.2646 690.173 84.179 690.552 84.8103C690.855 85.3154 685.038 95.1223 682.092 99.9627C678.86 108.145 671.233 110.443 667.824 110.569H639.413C624.968 111.175 617.063 132.919 627.796 143.526C628.806 146.859 642.506 154.079 649.23 157.272C657.285 162.862 655.615 167.927 649.23 173.802C629.441 192.007 512.988 238.41 431.953 260.277C414.064 264.077 394.352 264.916 366.057 264.037C340.569 263.246 312.596 251.54 301.795 245.787C278.191 237.091 277.009 233.123 260.506 233.123L115.408 233.53C93.4356 231.317 67.6698 220.107 57.7529 220.107C45.682 218.326 28.466 229.803 13.6198 216.545C-7.35035 185.573 41.9221 150.056 75.3848 162.461C80.5491 164.075 96.4617 178.542 103.773 185.573C120.314 198.832 140.264 187.594 160.927 173.937C176.26 165.401 190.171 166.982 196.177 170.933L306.079 233.123C319.955 240.129 399.97 247.809 410.258 200.809V180.818C410.258 170.53 414.091 167.033 416.007 165.285L434.547 152.317C446.368 142.994 438.601 134.42 430.516 128.438L269.682 33.6995C257.153 24.6208 238.702 23.7345 212.691 25.5863C190.053 27.8026 176.874 40.6255 157.924 48.1114C153.053 50.404 143.707 51.6931 132.632 49.376C115.245 43.6854 97.6985 32.1461 90.8921 23.0645C87.1545 16.7005 87.9891 8.75488 100.718 8.75488Z" stroke="black" stroke-width="16" stroke-linejoin="round"/>
<path d="M100.718 8.75488L679.815 33.3447C688.97 33.7334 689.856 39.4297 689.156 42.2292L683.734 64.6072C681.814 72.9915 682.092 76.224 687.395 78.2443C692.699 80.2646 690.173 84.179 690.552 84.8103C690.855 85.3154 685.038 95.1223 682.092 99.9627C678.86 108.145 671.233 110.443 667.824 110.569H639.413C624.968 111.175 617.063 132.919 627.796 143.526C628.806 146.859 642.506 154.079 649.23 157.272C657.285 162.862 655.615 167.927 649.23 173.802C629.441 192.007 512.988 238.41 431.953 260.277C414.064 264.077 394.352 264.916 366.057 264.037C340.569 263.246 312.596 251.54 301.795 245.787C278.191 237.091 277.009 233.123 260.506 233.123L115.408 233.53C93.4356 231.317 67.6698 220.107 57.7529 220.107C45.682 218.326 28.466 229.803 13.6198 216.545C-7.35035 185.573 41.9221 150.056 75.3848 162.461C80.5491 164.075 96.4617 178.542 103.773 185.573C120.314 198.832 140.264 187.594 160.927 173.937C176.26 165.401 190.171 166.982 196.177 170.933L306.079 233.123C319.955 240.129 399.97 247.809 410.258 200.809V180.818C410.258 170.53 414.091 167.033 416.007 165.285L434.547 152.317C446.368 142.994 438.601 134.42 430.516 128.438L269.682 33.6995C257.153 24.6208 238.702 23.7345 212.691 25.5863C190.053 27.8026 176.874 40.6255 157.924 48.1114C153.053 50.404 143.707 51.6931 132.632 49.376C115.245 43.6854 97.6985 32.1461 90.8921 23.0645C87.1545 16.7005 87.9891 8.75488 100.718 8.75488Z" stroke="white" stroke-width="8" stroke-linejoin="round"/>
</svg>
