<svg width="673" height="280" viewBox="0 0 673 280" fill="none" xmlns="http://www.w3.org/2000/svg">
<path d="M19.8219 228.489C39.2622 170.169 80.0864 51.5844 179.716 16.1059L184.774 10.0322C186.995 6.98852 190.688 8.48719 192.257 9.61698C202.289 17.0709 249.714 52.7091 326.582 100.849C353.758 113.661 374.722 115.602 399.18 140.06C454.509 185.094 490.8 140.06 485.705 104.943C485.579 87.1127 489.657 84.8137 509.574 78.229C527.278 73.6765 587.03 65.747 612.243 65.747C623.96 69.6866 621.839 80.0997 619.314 84.8137C618.405 85.7229 613.211 91.7586 610.727 94.6628C603.783 105.396 608.076 119.285 599.868 130.65C598.353 135.574 609.717 140.625 613.127 133.301L615.273 106.406C616.687 94.1829 625.459 94.5786 629.668 96.3043C633.203 97.3144 648.026 105.222 654.995 109.049C666.868 115.857 665.483 122.176 663.306 124.484L604.23 175.533C586.554 187.938 543.448 215.228 495.847 208.775C458.578 199.846 408.497 189.364 336.325 133.317C332.227 127.155 330.79 128.897 330.018 129.133C328.113 130.163 324.483 137.114 320.299 137.114C314.326 135.157 310.259 130.12 308.971 127.846C307.942 124.242 310.645 124.563 306.294 117.905L211.767 44.4016C206.076 40.102 199.628 40.8072 195.801 41.5563C165.926 47.4049 126.249 76.016 127.988 92.2974C127.988 98.1461 130.777 105.522 128.883 108.931C127.368 111.659 107 140.604 97.0062 154.736C88.7864 167.508 85.6263 171.408 82.4635 169.437C72.7263 163.367 68.7113 165.432 67.9209 167.224C63.242 170.638 52.3167 198.054 47.4389 211.336C43.3983 222.043 45.6712 242.398 51.227 256.288C55.2677 271.339 46.8497 272.324 42.1356 270.935C34.4584 269.016 20.8953 258.97 15.0734 254.187C6.19723 246.925 7.81097 242.352 9.72736 240.974C16.8283 235.971 19.4158 230.566 19.8219 228.489Z" stroke="black" stroke-width="16" stroke-linejoin="round"/>
<path d="M19.8219 228.489C39.2622 170.169 80.0864 51.5844 179.716 16.1059L184.774 10.0322C186.995 6.98852 190.688 8.48719 192.257 9.61698C202.289 17.0709 249.714 52.7091 326.582 100.849C353.758 113.661 374.722 115.602 399.18 140.06C454.509 185.094 490.8 140.06 485.705 104.943C485.579 87.1127 489.657 84.8137 509.574 78.229C527.278 73.6765 587.03 65.747 612.243 65.747C623.96 69.6866 621.839 80.0997 619.314 84.8137C618.405 85.7229 613.211 91.7586 610.727 94.6628C603.783 105.396 608.076 119.285 599.868 130.65C598.353 135.574 609.717 140.625 613.127 133.301L615.273 106.406C616.687 94.1829 625.459 94.5786 629.668 96.3043C633.203 97.3144 648.026 105.222 654.995 109.049C666.868 115.857 665.483 122.176 663.306 124.484L604.23 175.533C586.554 187.938 543.448 215.228 495.847 208.775C458.578 199.846 408.497 189.364 336.325 133.317C332.227 127.155 330.79 128.897 330.018 129.133C328.113 130.163 324.483 137.114 320.299 137.114C314.326 135.157 310.259 130.12 308.971 127.846C307.942 124.242 310.645 124.563 306.294 117.905L211.767 44.4016C206.076 40.102 199.628 40.8072 195.801 41.5563C165.926 47.4049 126.249 76.016 127.988 92.2974C127.988 98.1461 130.777 105.522 128.883 108.931C127.368 111.659 107 140.604 97.0062 154.736C88.7864 167.508 85.6263 171.408 82.4635 169.437C72.7263 163.367 68.7113 165.432 67.9209 167.224C63.242 170.638 52.3167 198.054 47.4389 211.336C43.3983 222.043 45.6712 242.398 51.227 256.288C55.2677 271.339 46.8497 272.324 42.1356 270.935C34.4584 269.016 20.8953 258.97 15.0734 254.187C6.19723 246.925 7.81097 242.352 9.72736 240.974C16.8283 235.971 19.4158 230.566 19.8219 228.489Z" stroke="white" stroke-width="8" stroke-linejoin="round"/>
</svg>
