<svg width="540" height="306" viewBox="0 0 540 306" fill="none" xmlns="http://www.w3.org/2000/svg">
<path d="M309.837 120.975L464.452 51.6664C474.976 46.9487 483.127 50.5105 485.886 52.8811L524.72 97.612C532.163 107.784 533.706 104.799 528.442 116.839C521.247 129.244 513.866 138.237 486.886 159.015L320.495 290.119C303.777 301.054 311.769 299.515 296.189 290.119C220.873 244.697 236.402 263.72 114.888 156.57C98.7383 143.837 59.8391 127.755 17.1822 111.849C5.48958 107.489 8.01607 105.161 13.7143 100.454C142.778 30.1002 138.716 74.4649 279.027 13.0064C303.007 2.50291 305.533 13.9142 303.799 20.9328C300.083 30.8426 309.837 86.085 192.921 103.77C170.017 107.653 159.923 130.946 172.344 150.357L225.92 191.897C239.896 201.214 262.335 194.848 267.848 178.309C278.408 146.63 285.318 129.781 309.837 120.975Z" stroke="black" stroke-width="16" stroke-linejoin="round"/>
<path d="M309.837 120.975L464.452 51.6664C474.976 46.9487 483.127 50.5105 485.886 52.8811L524.72 97.612C532.163 107.784 533.706 104.799 528.442 116.839C521.247 129.244 513.866 138.237 486.886 159.015L320.495 290.119C303.777 301.054 311.769 299.515 296.189 290.119C220.873 244.697 236.402 263.72 114.888 156.57C98.7383 143.837 59.8391 127.755 17.1822 111.849C5.48958 107.489 8.01607 105.161 13.7143 100.454C142.778 30.1002 138.716 74.4649 279.027 13.0064C303.007 2.50291 305.533 13.9142 303.799 20.9328C300.083 30.8426 309.837 86.085 192.921 103.77C170.017 107.653 159.923 130.946 172.344 150.357L225.92 191.897C239.896 201.214 262.335 194.848 267.848 178.309C278.408 146.63 285.318 129.781 309.837 120.975Z" stroke="white" stroke-width="8" stroke-linejoin="round"/>
</svg>
