<svg width="257" height="129" viewBox="0 0 257 129" fill="none" xmlns="http://www.w3.org/2000/svg">
<path d="M159.351 103.911L211.057 54.921C213.189 53.1991 217.743 49.3693 218.908 47.8261C220.074 46.2829 220.405 43.8394 220.426 42.8106C220.717 38.6824 216.986 37.0485 215.085 36.7475H204.861C199.905 35.8123 198.124 31.9681 197.854 30.1629C199.162 24.8952 203.849 23.98 206.029 24.1808C208.085 24.1808 221.212 29.5019 227.519 32.1624C232.938 33.762 239.744 41.3674 242.469 44.9701L250.169 94.0088C252.067 100.451 242.479 105.374 237.449 107.03L209.527 112.427C201.796 112.631 185.379 113.123 181.567 113.46C177.754 113.796 174.922 114.947 173.982 115.48C168.699 119.24 163.896 119.723 162.155 119.495L148.818 116.003C146.093 115.165 141.089 115.654 138.928 116.003C132.137 117.25 133.488 117.714 127.863 121.557C121.764 125.35 112.064 114.183 107.976 108.125L8.87188 65.7198C3.56866 58.9772 8.8719 52.1994 12.1864 49.6534C16.4224 47.1564 20.5369 44.6491 23.299 43.5955L45 30.1629C55.6064 24.8952 52.7339 22.1736 49.9718 21.4712C47.3202 20.4177 47.0993 17.1693 47.3203 15.6768C52.8887 9.35552 62.8985 7.07286 67.2074 6.72168L120.571 36.7475C125.344 39.4867 127.421 42.4542 127.863 43.5955C129.719 46.5454 128.636 52.375 127.863 54.921C124.785 61.2512 127.432 65.6357 127.848 66.1738C130.94 69.428 137.254 78.4501 144.104 84.4201C150.468 88.4236 150.733 90.8291 150.07 91.5315C135.486 95.3242 128.786 90.7557 132.172 98.6429C139.066 106.228 154.076 108.179 159.351 103.911Z" stroke="black" stroke-width="12" stroke-linejoin="round"/>
<path d="M159.351 103.911L211.057 54.921C213.189 53.1991 217.743 49.3693 218.909 47.8261C220.074 46.2829 220.406 43.8394 220.426 42.8106C220.717 38.6824 216.987 37.0485 215.085 36.7475H204.862C199.905 35.8123 198.125 31.9681 197.854 30.1629C199.162 24.8952 203.849 23.98 206.03 24.1808C208.085 24.1808 221.213 29.5019 227.52 32.1624C236.579 35.9841 242.469 42.8106 242.469 44.9701L250.17 94.0088C252.067 100.451 242.48 105.374 237.449 107.03L209.528 112.427C201.796 112.631 185.38 113.123 181.567 113.46C177.754 113.796 174.922 114.947 173.982 115.48C168.699 119.24 163.896 119.723 162.155 119.495L148.819 116.003C146.093 115.165 141.089 115.654 138.928 116.003C132.137 117.25 133.489 117.714 127.863 121.557C121.764 125.35 112.064 114.183 107.976 108.125L9.01756 65.3726C1.59544 61.3868 8.87236 52.1994 12.1869 49.6533C18.7873 45.1583 18.152 46.1012 23.4381 42.9479L45.0004 30.1629C53.7434 23.9558 52.3328 22.8143 50.0035 20.9976C47.9769 19.417 45.1436 18.639 47.3207 15.6768C52.8891 9.35552 62.899 7.07286 67.2078 6.72168L120.571 36.7475C125.344 39.4867 127.421 42.4542 127.863 43.5955C129.719 46.5454 128.637 52.375 127.863 54.921C124.785 61.2512 127.432 65.6357 127.848 66.1738C130.94 69.428 137.254 78.4501 144.104 84.4201C150.468 88.4236 150.733 90.8291 150.07 91.5315C135.486 95.3242 128.786 90.7557 132.172 98.6429C139.066 106.228 154.076 108.179 159.351 103.911Z" stroke="white" stroke-width="3.99999" stroke-linejoin="round"/>
</svg>
